<?xml version="1.0" encoding="UTF-8" standalone="no"?>
<svg
   xmlns:dc="http://purl.org/dc/elements/1.1/"
   xmlns:cc="http://creativecommons.org/ns#"
   xmlns:rdf="http://www.w3.org/1999/02/22-rdf-syntax-ns#"
   xmlns:svg="http://www.w3.org/2000/svg"
   xmlns="http://www.w3.org/2000/svg"
   xmlns:sodipodi="http://sodipodi.sourceforge.net/DTD/sodipodi-0.dtd"
   xmlns:inkscape="http://www.inkscape.org/namespaces/inkscape"
   class="icon"
   style=""
   viewBox="0 0 1024 1024"
   version="1.1"
   p-id="5613"
   width="16"
   height="16"
   id="svg2"
   inkscape:version="0.48.4 r9939"
   sodipodi:docname="hooray.svg">
  <metadata
     id="metadata12">
    <rdf:RDF>
      <cc:Work
         rdf:about="">
        <dc:format>image/svg+xml</dc:format>
        <dc:type
           rdf:resource="http://purl.org/dc/dcmitype/StillImage" />
      </cc:Work>
    </rdf:RDF>
  </metadata>
  <sodipodi:namedview
     pagecolor="#ffffff"
     bordercolor="#666"
     borderopacity="1"
     objecttolerance="10"
     gridtolerance="10"
     guidetolerance="10"
     inkscape:pageopacity="0"
     inkscape:pageshadow="2"
     inkscape:window-width="1920"
     inkscape:window-height="1020"
     id="namedview10"
     showgrid="false"
     inkscape:zoom="29.5"
     inkscape:cx="15.403049"
     inkscape:cy="8.5312116"
     inkscape:window-x="0"
     inkscape:window-y="30"
     inkscape:window-maximized="1"
     inkscape:current-layer="svg2"
     inkscape:object-paths="true" />
  <defs
     id="defs4">
    <inkscape:path-effect
       effect="spiro"
       id="path-effect2989"
       is_visible="true" />
    <inkscape:path-effect
       effect="spiro"
       id="path-effect2985"
       is_visible="true" />
    <style
       type="text/css"
       id="style6" />
  </defs>
  <path
     d="m 473.04863,533.95183 c -7.41503,16.79363 5.19383,37.63643 24.12422,40.09827 9.24413,1.20196 16.23414,-2.28532 22.12669,-8.47024 27.39552,-28.74981 54.89104,-57.39992 82.43393,-86.0015 73.45167,-76.27 58.78739,-62.25083 132.30617,-138.45077 5.95572,-6.1728 11.3864,-12.47496 10.18499,-21.97469 -0.82769,-13.5745 -8.18483,-23.45826 -20.48577,-28.11514 -12.51806,-4.73774 -21.04767,0.39886 -28.60482,8.25466 -101.16432,105.15725 -114.22584,120.0159 -215.35463,225.20685 -2.6502,2.75693 -5.16487,5.90734 -6.73078,9.45256 z m 548.63017,77.89236 c -3.7688,-8.18323 -9.8942,-12.20681 -18.566,-11.81199 -9.19676,0.41906 -18.40402,0.78827 -27.57179,1.59272 -10.89295,0.95536 -19.31727,-2.48206 -25.39932,-12.23646 -4.54771,-7.29256 -10.07182,-13.94102 -14.9564,-21.02471 -5.66359,-8.21154 -12.88125,-12.87382 -22.6741,-9.07123 -9.72838,3.77833 -12.16541,12.29709 -11.55221,22.15659 0.5132,8.27757 0.65137,16.59151 1.45933,24.83808 1.09744,11.21372 -2.39229,19.81199 -11.82196,26.05755 -6.79131,4.49788 -13.12205,9.72206 -19.71993,14.53391 -8.16114,5.95182 -13.39049,13.03416 -9.39808,23.96356 3.7845,10.36077 11.74826,12.4588 21.41216,11.70421 8.44143,-0.65892 16.93419,-0.66566 25.3651,-1.41755 10.67318,-0.94998 18.40667,3.36196 24.31369,12.31461 5.35305,8.11586 11.05611,16.0067 16.88288,23.77626 5.02538,6.69966 11.65483,8.8206 19.64623,6.06635 8.3888,-2.89034 12.70887,-8.78017 12.41808,-17.84466 -0.33689,-10.54941 -0.80139,-21.10017 -1.49225,-31.62937 -0.59345,-9.04294 2.23698,-16.13336 9.63888,-21.433 8.44668,-6.04748 16.69209,-12.3968 24.94659,-18.72052 7.323,-5.60687 9.6864,-12.96545 7.0691,-21.81435 z M 751.85811,233.42226 c 8.1322,2.42276 16.14729,5.32657 24.37292,7.33701 10.14156,2.48072 15.68936,8.97422 18.33429,18.94421 2.51073,9.45795 5.21356,18.87549 8.23485,28.17309 2.82521,8.69394 8.77961,14.32236 17.99084,13.95045 8.57566,-0.3463 14.1274,-5.63246 16.58285,-14.20108 2.7989,-9.76923 5.77018,-19.48589 8.59803,-29.24568 2.61598,-9.02407 8.01245,-14.90716 17.12104,-17.42425 9.95076,-2.74886 19.81204,-5.87771 29.59963,-9.19116 8.28353,-2.80276 12.2562,-9.16016 12.75361,-17.89991 -0.78822,-9.02945 -5.68596,-14.66326 -13.79447,-17.28276 -9.12833,-2.94694 -18.36194,-5.57182 -27.59554,-8.16573 -9.70732,-2.72595 -15.9999,-8.55245 -18.4264,-18.90378 -2.0607,-8.78961 -4.84248,-17.40538 -7.42162,-26.06024 -2.82128,-9.46874 -7.90719,-16.02287 -18.75407,-15.7655 -10.30869,0.24658 -15.0222,6.64037 -17.62766,15.71699 -2.28571,7.95821 -4.95696,15.82884 -6.74658,23.90428 -2.6673,12.03972 -9.70995,18.91052 -21.31346,21.70519 -7.51637,1.80966 -14.81824,4.53022 -22.28065,6.59725 -9.34151,2.58716 -16.16571,7.27505 -16.30256,18.38905 -0.14344,11.66243 7.07027,16.56052 16.67495,19.42257 z M 354.98303,94.634613 c 7.38478,6.334497 10.58896,14.075757 9.01122,24.036327 -1.53302,9.66816 -2.53704,19.42525 -3.68844,29.15406 -1.0843,9.15073 1.63432,16.53356 10.24683,20.46012 8.56381,3.90499 15.81568,1.26932 21.76614,-5.71735 6.53208,-7.67255 13.20101,-15.23999 19.39885,-23.18877 5.65833,-7.25886 12.82335,-9.74227 21.48322,-8.68585 10.60081,1.29089 21.18188,2.74751 31.78928,3.97372 8.42696,0.97287 14.12607,-3.01567 17.56318,-10.72998 3.88056,-8.32472 2.01463,-15.47579 -4.50692,-21.41009 -6.87684,-6.254999 -13.73789,-12.563895 -20.99108,-18.340538 -8.69936,-6.926043 -12.36279,-15.477144 -10.56397,-26.697602 1.43169,-8.924351 2.31333,-17.938985 3.53053,-26.901068 1.29616,-9.548237 -1.00534,-17.282765 -10.26788,-21.4343465 -9.22308,-4.1340651 -16.40915,-0.6656543 -22.47673,6.6349845 -5.48462,6.602646 -11.19295,13.023383 -16.43415,19.822764 -7.0637,9.16151 -15.68409,12.974874 -27.14286,10.655863 -8.65066,-1.750376 -17.48423,-2.587159 -26.25595,-3.665143 -8.96516,-1.102237 -16.22098,1.93498 -19.98705,10.638347 -3.7582,8.684501 -1.208,16.215561 5.69384,22.296734 7.25451,6.391092 14.49585,12.803745 21.83194,19.097818 z M 802.70016,406.06664 c -30.01677,12.41163 -59.84011,25.32452 -89.60817,38.3533 -8.69804,3.80662 -14.2182,10.58848 -14.10766,23.02841 -0.10922,14.35066 14.26689,25.49296 29.52726,19.3498 30.80762,-12.4022 61.32706,-25.58188 91.69649,-39.07554 12.58122,-5.58934 17.1184,-18.45911 12.11671,-29.9895 -5.06618,-11.67994 -16.93419,-16.91355 -29.62463,-11.66647 z M 577.15923,341.4712 c 8.92568,0.16439 16.31441,-3.2609 19.85809,-11.73385 13.36155,-31.94468 26.60204,-63.95269 39.19511,-96.22078 4.58193,-11.73923 -1.00534,-23.22919 -11.8167,-28.29975 -10.54028,-4.94254 -23.24783,-1.36904 -28.23768,10.16538 -13.74315,31.76682 -27.0955,63.74789 -39.26616,96.17093 -5.9123,15.75068 4.69641,29.80892 20.26734,29.91807 z m -280.98859,-8.85833 c 6.66893,20.73636 13.96027,41.27328 21.38584,61.74418 5.3083,14.63093 16.76444,20.61508 29.48516,16.1711 11.6693,-4.07748 17.21184,-16.5686 12.56937,-30.90713 -6.71103,-20.72826 -13.98527,-41.27193 -21.4819,-61.71723 -3.49238,-9.52398 -10.24552,-15.51083 -22.70042,-15.40842 -14.43663,-0.11184 -24.52293,13.74968 -19.25805,30.1175 z m 421.9191,371.9271 c -8.15589,-3.42933 -16.53284,-6.31294 -24.85059,-9.32725 -12.47463,-4.5208 -24.81636,-9.55093 -37.52655,-13.24302 -12.91809,-3.75274 -24.38213,2.22333 -28.16268,13.26728 -4.35954,12.73502 0.99613,24.5268 14.56559,29.76985 20.63447,7.97302 41.38737,15.67387 62.34293,22.70232 15.1551,5.08135 28.55481,-5.57721 28.4877,-19.78234 0.1408,-12.71077 -5.60964,-19.49802 -14.8564,-23.38684 z M 885.73282,371.75848 c -13.93133,0.0916 -23.16888,9.34881 -23.05044,23.09983 0.11579,13.36295 9.48098,22.60666 22.52277,22.22937 13.11153,-0.37999 23.18466,-10.92402 22.87017,-23.93258 -0.30266,-12.41028 -9.77181,-21.47881 -22.3425,-21.39662 z M 283.91181,268.25458 c 12.06144,0.38403 22.79122,-10.31899 22.84253,-22.78721 0.0514,-12.51539 -10.14287,-23.5243 -22.09906,-23.86385 -11.98907,-0.33957 -23.00965,10.57232 -23.00965,22.78047 0,12.35504 10.38764,23.49195 22.26618,23.87059 z m 510.04952,468.11015 c -11.84959,-0.43524 -23.02281,10.61544 -23.03728,22.78587 -0.0132,11.96561 10.73765,23.31408 22.50171,23.7547 11.93512,0.44466 22.92807,-10.45374 22.99124,-22.7953 0.0632,-12.04242 -10.59292,-23.30869 -22.45567,-23.74527 z M 646.38031,173.70334 c 13.14969,0.25736 23.99789,-10.81891 23.6676,-24.16973 -0.30793,-12.39547 -9.77312,-21.63513 -22.20565,-21.67286 -12.522,-0.0378 -23.06492,10.75828 -23.11097,23.66578 -0.0448,12.41432 9.24675,21.93291 21.64902,22.17681 z M 446.59925,186.817 c -14.00897,5.82245 -20.74633,22.17546 -15.06036,36.52072 40.20965,101.38567 19.53438,160.86608 -35.68299,241.46418 -8.67962,12.67574 -5.68597,30.16062 6.70182,39.0486 a 27.270507,27.925154 0 0 0 15.70251,5.08269 c 8.60856,0 17.11053,-4.16102 22.43988,-11.93597 61.95342,-90.46166 90.52534,-171.32386 41.5637,-294.75698 -5.68595,-14.32909 -21.6556,-21.28209 -35.66456,-15.42324 z M 836.94883,564.74441 C 716.37382,514.5899 637.39805,543.84637 549.0834,607.31532 c -12.3878,8.88797 -15.38144,26.37286 -6.68341,39.04859 5.31094,7.77496 13.8129,11.93597 22.42145,11.93597 5.43594,0 10.92584,-1.65201 15.70252,-5.08269 78.72576,-56.54156 136.79467,-77.70507 235.82065,-36.53016 14.0274,5.86827 29.97861,-1.08607 35.66458,-15.42189 5.68596,-14.34526 -1.0514,-30.69826 -15.06036,-36.52073 z M 303.81727,458.01196 c -8.57302,-8.79769 -20.85291,-12.60298 -32.7775,-10.26644"
     p-id="5614"
     id="path8"
     inkscape:connector-curvature="0"
     style="fill:#333" />
  <path
     style="fill:none;stroke:#333;stroke-width:62.36078644px;stroke-linecap:butt;stroke-linejoin:miter;stroke-opacity:1"
     d="m 288.00015,476.46853 c 0,0 -211.448303,429.01347 -230.47865,464.94076 -19.030347,35.92722 -8.457932,57.06085 35.946211,38.04057 C 137.87185,960.42954 569.22638,734.29931 569.22638,734.29931 z"
     id="path2993"
     inkscape:connector-curvature="0" />
</svg>
