<?xml version="1.0" encoding="UTF-8" standalone="no"?>
<svg
   xmlns:dc="http://purl.org/dc/elements/1.1/"
   xmlns:cc="http://creativecommons.org/ns#"
   xmlns:rdf="http://www.w3.org/1999/02/22-rdf-syntax-ns#"
   xmlns:svg="http://www.w3.org/2000/svg"
   xmlns="http://www.w3.org/2000/svg"
   xmlns:sodipodi="http://sodipodi.sourceforge.net/DTD/sodipodi-0.dtd"
   xmlns:inkscape="http://www.inkscape.org/namespaces/inkscape"
   class="icon"
   style=""
   viewBox="0 0 1024 1024"
   version="1.1"
   p-id="7030"
   width="16"
   height="16"
   id="svg2"
   inkscape:version="0.48.4 r9939"
   sodipodi:docname="laugh.svg">
  <metadata
     id="metadata14">
    <rdf:RDF>
      <cc:Work
         rdf:about="">
        <dc:format>image/svg+xml</dc:format>
        <dc:type
           rdf:resource="http://purl.org/dc/dcmitype/StillImage" />
      </cc:Work>
    </rdf:RDF>
  </metadata>
  <sodipodi:namedview
     pagecolor="#ffffff"
     bordercolor="#666666"
     borderopacity="1"
     objecttolerance="10"
     gridtolerance="10"
     guidetolerance="10"
     inkscape:pageopacity="0"
     inkscape:pageshadow="2"
     inkscape:window-width="1920"
     inkscape:window-height="1020"
     id="namedview12"
     showgrid="false"
     inkscape:snap-global="false"
     inkscape:zoom="29.5"
     inkscape:cx="15.360649"
     inkscape:cy="6.2656039"
     inkscape:window-x="0"
     inkscape:window-y="30"
     inkscape:window-maximized="1"
     inkscape:current-layer="svg2" />
  <defs
     id="defs4">
    <inkscape:path-effect
       effect="spiro"
       id="path-effect3031"
       is_visible="true" />
    <inkscape:path-effect
       effect="spiro"
       id="path-effect3027"
       is_visible="true" />
    <style
       type="text/css"
       id="style6" />
  </defs>
  <path
     d="m 511.99798,-1.0831658 c -276.17947,0 -500.064195,229.7125458 -500.064197,513.0810958 -10e-7,283.36855 223.884727,513.08527 500.064197,513.08527 276.17948,0 500.06822,-229.71672 500.06822,-513.08527 0,-283.36855 -223.88874,-513.0810958 -500.06822,-513.0810958 z M 907.03318,683.18907 a 427.12817,438.24651 0 1 1 24.94776,-82.46367 428.55157,439.70696 0 0 1 -24.94776,82.46367 z"
     fill="#333"
     p-id="7031"
     id="path8"
     inkscape:connector-curvature="0" />
  <path
     sodipodi:type="arc"
     style="fill:#666"
     id="path2991"
     sodipodi:cx="6.2542372"
     sodipodi:cy="6.5762711"
     sodipodi:rx="0.96610171"
     sodipodi:ry="1.0169492"
     d="m 7.2203389,6.5762711 a 0.96610171,1.0169492 0 1 1 -1.9322034,0 0.96610171,1.0169492 0 1 1 1.9322034,0 z"
     transform="matrix(80.116223,0,0,80.786884,-178.5129,-201.79826)" />
  <path
     transform="matrix(80.116223,0,0,80.786884,227.49982,-199.05971)"
     sodipodi:type="arc"
     style="fill:#666"
     id="path2991-3"
     sodipodi:cx="6.2542372"
     sodipodi:cy="6.5762711"
     sodipodi:rx="0.96610171"
     sodipodi:ry="1.0169492"
     d="m 7.2203389,6.5762711 a 0.96610171,1.0169492 0 1 1 -1.9322034,0 0.96610171,1.0169492 0 1 1 1.9322034,0 z" />
  <path
     style="fill:none;stroke:#666;stroke-width:62.73488235px;stroke-linecap:butt;stroke-linejoin:miter;stroke-opacity:1"
     d="m 201.14077,487.50303 c 10.05009,94.09831 64.02627,182.57712 143.09799,234.56904 79.07171,51.99192 181.69694,66.483 272.07304,38.41779 56.42626,-17.5225 107.81975,-50.94963 146.71497,-95.42571 38.89522,-44.47609 65.17427,-99.8663 75.0198,-158.12457"
     id="path3029"
     inkscape:path-effect="#path-effect3031"
     inkscape:original-d="M 201.14077,487.50303 C 218.52988,880.7368 350.10851,721.52907 616.3118,760.48986 896.38933,801.48124 842.39385,588.08308 838.04657,506.93958"
     inkscape:connector-curvature="0"
     sodipodi:nodetypes="csc" />
</svg>
