<?xml version="1.0" encoding="UTF-8" standalone="no"?>
<svg
   xmlns:dc="http://purl.org/dc/elements/1.1/"
   xmlns:cc="http://creativecommons.org/ns#"
   xmlns:rdf="http://www.w3.org/1999/02/22-rdf-syntax-ns#"
   xmlns:svg="http://www.w3.org/2000/svg"
   xmlns="http://www.w3.org/2000/svg"
   xmlns:sodipodi="http://sodipodi.sourceforge.net/DTD/sodipodi-0.dtd"
   xmlns:inkscape="http://www.inkscape.org/namespaces/inkscape"
   class="icon"
   style=""
   viewBox="0 0 1024 1024"
   version="1.1"
   p-id="1055"
   width="16"
   height="16"
   id="svg2"
   inkscape:version="0.48.4 r9939"
   sodipodi:docname="plus.svg">
  <metadata
     id="metadata12">
    <rdf:RDF>
      <cc:Work
         rdf:about="">
        <dc:format>image/svg+xml</dc:format>
        <dc:type
           rdf:resource="http://purl.org/dc/dcmitype/StillImage" />
      </cc:Work>
    </rdf:RDF>
  </metadata>
  <sodipodi:namedview
     pagecolor="#ffffff"
     bordercolor="#666666"
     borderopacity="1"
     objecttolerance="10"
     gridtolerance="10"
     guidetolerance="10"
     inkscape:pageopacity="0"
     inkscape:pageshadow="2"
     inkscape:window-width="649"
     inkscape:window-height="480"
     id="namedview10"
     showgrid="false"
     inkscape:zoom="14.75"
     inkscape:cx="8"
     inkscape:cy="8"
     inkscape:window-x="0"
     inkscape:window-y="30"
     inkscape:window-maximized="0"
     inkscape:current-layer="svg2" />
  <defs
     id="defs4">
    <style
       type="text/css"
       id="style6" />
  </defs>
  <path
     d="M281.6 460.8C281.6 404.48 517.12 307.2 588.8 215.04c71.68-92.16 66.56-122.88 81.92-158.72 20.48-40.96 92.16-46.08 107.52 10.24C793.6 122.88 808.96 204.8 691.2 384c-10.24 20.48 168.96 25.6 215.04 66.56 46.08 40.96 71.68 122.88-25.6 194.56-30.72 20.48-56.32 250.88-143.36 327.68C645.12 1054.72 281.6 942.08 281.6 911.36L281.6 460.8zM133.12 926.72C102.4 926.72 76.8 901.12 76.8 870.4l0-358.4c0-30.72 25.6-56.32 56.32-56.32S189.44 481.28 189.44 512l0 358.4C189.44 901.12 163.84 926.72 133.12 926.72z"
     p-id="1056"
     id="path8"
     style="fill:#666" />
</svg>
