<?xml version="1.0" encoding="utf-8"?>
<!DOCTYPE svg PUBLIC "-//W3C//DTD SVG 1.1//EN" "http://www.w3.org/Graphics/SVG/1.1/DTD/svg11.dtd">
<svg width="64" height="64" id="docker">
	<g>
		<path class="svg_fill" d="M33.7,23.5h5.9v6h3c1.4,0,2.8-0.2,4.1-0.7c0.7-0.2,1.4-0.5,2-0.9c-0.8-1.1-1.3-2.5-1.4-3.8c-0.2-1.8,0.2-4.2,1.4-5.7l0.6-0.7l0.7,0.6c1.9,1.5,3.4,3.6,3.7,6c2.2-0.7,4.9-0.5,6.8,0.6l0.8,0.5L61,26.2c-1.7,3.3-5.2,4.3-8.6,4.1C47.3,43,36.2,49,22.7,49c-7,0-13.3-2.6-17-8.8l-0.1-0.1L5.2,39c-1.2-2.7-1.6-5.7-1.4-8.7l0.1-0.9h5v-6h5.9v-5.9h11.8v-5.9h7.1V23.5z"></path>
		<g fill="#FFF" id="pix_group">
			<rect x="9.9" y="24.4" width="5.1" height="5.1" opacity="0.9"></rect>
			<rect x="15.8" y="18.5" width="5.1" height="5.1" opacity="0.9"></rect>
			<polygon points="15.8,24.4 20.9,24.4 20.9,29.5 15.8,29.5 15.8,24.4" opacity="0.9"></polygon>
			<polygon points="21.7,24.4 26.8,24.4 26.8,29.5 21.7,29.5 21.7,24.4" opacity="0.9"></polygon>
			<polygon points="21.7,18.5 26.8,18.5 26.8,23.7 21.7,23.7 21.7,18.5" opacity="0.9"></polygon>
			<polygon points="27.6,24.4 32.7,24.4 32.7,29.5 27.6,29.5 27.6,24.4 27.6,24.4" opacity="0.9"></polygon>
			<polygon points="27.6,18.5 32.7,18.5 32.7,23.7 27.6,23.7 27.6,18.5 27.6,18.5" opacity="0.9"></polygon>
			<polygon points="27.6,12.6 32.7,12.6 32.7,17.8 27.6,17.8 27.6,12.6 27.6,12.6" opacity="0.9"></polygon>
			<polygon points="33.5,24.4 38.6,24.4 38.6,29.5 33.5,29.5 33.5,24.4 33.5,24.4" opacity="0.9"></polygon>
		</g>
		<path fill="#FFF" d="M20.6,37.8c0.8,0,1.4,0.6,1.4,1.4c0,0.8-0.6,1.4-1.4,1.4c-0.8,0-1.4-0.6-1.4-1.4l0,0C19.2,38.5,19.8,37.8,20.6,37.8"></path>
		<path class="svg_fill" d="M20.6,38.2c0.1,0,0.2,0,0.4,0.1c-0.2,0.1-0.3,0.4-0.1,0.6c0.1,0.2,0.4,0.3,0.6,0.1c0.1,0,0.1-0.1,0.2-0.2c0.2,0.5,0,1.1-0.5,1.3c-0.5,0.2-1.1,0-1.3-0.6s0-1.1,0.5-1.3C20.3,38.3,20.5,38.2,20.6,38.2"></path>
		<path fill="#FFF" d="M24.3,48c-3.5-1.7-5.4-3.9-6.5-6.4c-1.3,0.4-2.9,0.6-4.7,0.7c-0.7,0-1.4,0.1-2.2,0.1c-0.9,0-1.8,0-2.7-0.1c3.2,3.2,7.1,5.7,14.4,5.7C23.3,48,23.8,48,24.3,48z"></path>
	</g>
</svg>
